<svg width="64" height="64" viewBox="0 0 64 64" fill="none" xmlns="http://www.w3.org/2000/svg">
                        <path
                            d="M39.7347 21.4633C40.8113 23.014 41.51 24.85 41.5667 26.7467C41.6987 29.4167 40.6407 32.1127 38.7333 33.982C36.776 35.9727 33.914 37.0107 31.1373 36.7647C29.3893 36.634 27.7193 35.978 26.2953 34.9733C26.052 34.8013 25.8147 34.6207 25.586 34.4293C24.8293 33.676 24.1327 32.8627 23.5673 31.9547C23.562 35.0187 23.5713 38.0807 23.566 41.1447C24.1747 41.506 24.8033 41.838 25.458 42.1073C25.734 42.2227 26.014 42.3287 26.2953 42.4287C29.008 43.3973 31.9653 43.6813 34.8047 43.162C38.9973 42.4313 42.83 39.948 45.264 36.4653C47.0067 33.9853 48.0447 31.0127 48.1873 27.982C48.3793 24.4253 47.3813 20.7893 45.3047 17.8873C43.6153 15.4513 41.2533 13.484 38.5447 12.2787C35.8993 11.0833 32.9307 10.6467 30.0493 10.9727C25.88 11.4373 21.9327 13.6053 19.3047 16.8753C17.26 19.3393 16.0153 22.4333 15.706 25.6173C17.918 25.612 20.1307 25.638 22.3407 25.5973C22.6047 24.7773 22.744 23.9133 23.1433 23.1407C24.5867 19.9027 27.9407 17.6253 31.4873 17.5033C34.6713 17.3293 37.876 18.8747 39.7347 21.4633Z"
                            fill="#1C3EC5" />
                        <mask id="mask0_2041_288" style="mask-type:luminance" maskUnits="userSpaceOnUse" x="15" y="26"
                            width="8" height="20">
                            <path d="M15.608 26.9653H22.3573V45.7387H15.608V26.9653Z" fill="white" />
                        </mask>
                        <g mask="url(#mask0_2041_288)">
                            <path
                                d="M20.8466 44.2707C21.7826 43.3147 22.32 41.9807 22.2686 40.6453C22.272 36.1447 22.2826 31.6433 22.2793 27.1427C20.0686 27.1027 17.8586 27.134 15.648 27.12C15.6266 33.0967 15.6373 39.0753 15.6546 45.05C15.6406 45.3233 18.4786 46.6893 20.8466 44.2707Z"
                                fill="#1C3EC5" />
                        </g>
                        <mask id="mask1_2041_288" style="mask-type:luminance" maskUnits="userSpaceOnUse" x="15" y="37"
                            width="8" height="17">
                            <path d="M15.6234 37.7507H22.2574V53.378H15.6234V37.7507Z" fill="white" />
                        </mask>
                        <g mask="url(#mask1_2041_288)">
                            <mask id="mask2_2041_288" style="mask-type:luminance" maskUnits="userSpaceOnUse" x="15"
                                y="37" width="8" height="17">
                                <path
                                    d="M18.9407 37.7507C20.7727 37.7507 22.2574 39.236 22.2574 41.068V50.06C22.2574 51.892 20.7727 53.3773 18.9407 53.3773C17.1087 53.3773 15.6234 51.892 15.6234 50.06V41.068C15.6234 39.236 17.1087 37.7507 18.9407 37.7507Z"
                                    fill="white" />
                            </mask>
                            <g mask="url(#mask2_2041_288)">
                                <mask id="mask3_2041_288" style="mask-type:luminance" maskUnits="userSpaceOnUse" x="15"
                                    y="37" width="8" height="17">
                                    <path d="M22.3574 37.7173H15.5307V53.4187H22.3574V37.7173Z" fill="white" />
                                </mask>
                                <g mask="url(#mask3_2041_288)">
                                    <mask id="mask4_2041_288" style="mask-type:luminance" maskUnits="userSpaceOnUse"
                                        x="15" y="37" width="8" height="17">
                                        <path d="M15.6234 37.7507H22.2574V53.378H15.6234V37.7507Z" fill="white" />
                                    </mask>
                                    <g mask="url(#mask4_2041_288)">
                                        <mask id="mask5_2041_288" style="mask-type:luminance" maskUnits="userSpaceOnUse"
                                            x="15" y="37" width="8" height="17">
                                            <path
                                                d="M18.9407 37.7507C20.7727 37.7507 22.2574 39.236 22.2574 41.068V50.06C22.2574 51.892 20.7727 53.3773 18.9407 53.3773C17.1087 53.3773 15.6234 51.892 15.6234 50.06V41.068C15.6234 39.236 17.1087 37.7507 18.9407 37.7507Z"
                                                fill="white" />
                                        </mask>
                                        <g mask="url(#mask5_2041_288)">
                                            <path d="M15.6234 37.7507H22.2574V53.378H15.6234V37.7507Z" fill="#1C3EC5" />
                                        </g>
                                    </g>
                                </g>
                            </g>
                        </g>
                        <mask id="mask6_2041_288" style="mask-type:luminance" maskUnits="userSpaceOnUse" x="15" y="37"
                            width="5" height="17">
                            <path d="M15.6234 37.7507H19.1087V53.3773H15.6234V37.7507Z" fill="white" />
                        </mask>
                        <g mask="url(#mask6_2041_288)">
                            <mask id="mask7_2041_288" style="mask-type:luminance" maskUnits="userSpaceOnUse" x="15"
                                y="37" width="5" height="17">
                                <path d="M19.1147 37.7173H15.5307V53.4187H19.1147V37.7173Z" fill="white" />
                            </mask>
                            <g mask="url(#mask7_2041_288)">
                                <mask id="mask8_2041_288" style="mask-type:luminance" maskUnits="userSpaceOnUse" x="15"
                                    y="37" width="5" height="17">
                                    <path d="M15.6234 37.7507H19.1087V53.3773H15.6234V37.7507Z" fill="white" />
                                </mask>
                                <g mask="url(#mask8_2041_288)">
                                    <path d="M15.6234 37.7507H19.1087V53.3793H15.6234V37.7507Z" fill="#1C3EC5" />
                                </g>
                            </g>
                        </g>
                    </svg>